<mxfile host="app.diagrams.net" modified="2023-10-21T05:41:27.584Z" agent="Mozilla/5.0 (Windows NT 10.0; Win64; x64) AppleWebKit/537.36 (KHTML, like Gecko) Chrome/118.0.0.0 Safari/537.36" etag="Kw6FE2C3KQ99XK7UqPHP" version="22.0.0" type="device">
  <diagram name="PÃ¡gina-1" id="5vkWipXI4Jd7R3DipBLy">
    <mxGraphModel dx="1434" dy="802" grid="1" gridSize="10" guides="1" tooltips="1" connect="1" arrows="1" fold="1" page="1" pageScale="1" pageWidth="827" pageHeight="1169" math="0" shadow="0">
      <root>
        <mxCell id="0" />
        <mxCell id="1" parent="0" />
        <mxCell id="yecwBfwort3IGkdsRdy6-18" style="edgeStyle=orthogonalEdgeStyle;rounded=0;orthogonalLoop=1;jettySize=auto;html=1;entryX=0.5;entryY=0;entryDx=0;entryDy=0;" edge="1" parent="1" source="yecwBfwort3IGkdsRdy6-1" target="yecwBfwort3IGkdsRdy6-16">
          <mxGeometry relative="1" as="geometry" />
        </mxCell>
        <mxCell id="yecwBfwort3IGkdsRdy6-1" value="Case 4:" style="ellipse;whiteSpace=wrap;html=1;" vertex="1" parent="1">
          <mxGeometry x="162.5" y="50" width="110" height="60" as="geometry" />
        </mxCell>
        <mxCell id="yecwBfwort3IGkdsRdy6-21" style="edgeStyle=orthogonalEdgeStyle;rounded=0;orthogonalLoop=1;jettySize=auto;html=1;entryX=0.5;entryY=0;entryDx=0;entryDy=0;" edge="1" parent="1" source="yecwBfwort3IGkdsRdy6-2" target="yecwBfwort3IGkdsRdy6-19">
          <mxGeometry relative="1" as="geometry" />
        </mxCell>
        <mxCell id="yecwBfwort3IGkdsRdy6-2" value="comparArr(int *arr1, int *arr2, int n)" style="ellipse;whiteSpace=wrap;html=1;" vertex="1" parent="1">
          <mxGeometry x="442.5" y="40" width="205" height="70" as="geometry" />
        </mxCell>
        <mxCell id="yecwBfwort3IGkdsRdy6-11" style="edgeStyle=orthogonalEdgeStyle;rounded=0;orthogonalLoop=1;jettySize=auto;html=1;entryX=0.5;entryY=0;entryDx=0;entryDy=0;" edge="1" parent="1" source="yecwBfwort3IGkdsRdy6-6" target="yecwBfwort3IGkdsRdy6-7">
          <mxGeometry relative="1" as="geometry" />
        </mxCell>
        <mxCell id="yecwBfwort3IGkdsRdy6-6" value="&quot;Arreglo 1:&quot;" style="shape=document;whiteSpace=wrap;html=1;boundedLbl=1;" vertex="1" parent="1">
          <mxGeometry x="157.5" y="231" width="120" height="50" as="geometry" />
        </mxCell>
        <mxCell id="yecwBfwort3IGkdsRdy6-12" style="edgeStyle=orthogonalEdgeStyle;rounded=0;orthogonalLoop=1;jettySize=auto;html=1;entryX=0.5;entryY=0;entryDx=0;entryDy=0;" edge="1" parent="1" source="yecwBfwort3IGkdsRdy6-7">
          <mxGeometry relative="1" as="geometry">
            <mxPoint x="217.5" y="391" as="targetPoint" />
          </mxGeometry>
        </mxCell>
        <mxCell id="yecwBfwort3IGkdsRdy6-7" value="imprArr(vect1, 5)" style="rounded=0;whiteSpace=wrap;html=1;" vertex="1" parent="1">
          <mxGeometry x="157.5" y="311" width="120" height="50" as="geometry" />
        </mxCell>
        <mxCell id="yecwBfwort3IGkdsRdy6-13" value="break" style="ellipse;whiteSpace=wrap;html=1;" vertex="1" parent="1">
          <mxGeometry x="180" y="1210" width="75" height="50" as="geometry" />
        </mxCell>
        <mxCell id="yecwBfwort3IGkdsRdy6-17" style="edgeStyle=orthogonalEdgeStyle;rounded=0;orthogonalLoop=1;jettySize=auto;html=1;entryX=0.5;entryY=0;entryDx=0;entryDy=0;" edge="1" parent="1" source="yecwBfwort3IGkdsRdy6-16">
          <mxGeometry relative="1" as="geometry">
            <mxPoint x="217.5" y="230" as="targetPoint" />
          </mxGeometry>
        </mxCell>
        <mxCell id="yecwBfwort3IGkdsRdy6-16" value="&lt;div&gt;int vect1[] = {4, 7, 1, 5, 9}&lt;/div&gt;&lt;div&gt;&amp;nbsp; &amp;nbsp; int vect2[] = {6, 5, 3, 2, 7}&lt;/div&gt;&lt;div&gt;int vect3[] = {4, 7, 1, 5, 9}&lt;br&gt;&lt;/div&gt;" style="rounded=0;whiteSpace=wrap;html=1;" vertex="1" parent="1">
          <mxGeometry x="132.5" y="140" width="170" height="60" as="geometry" />
        </mxCell>
        <mxCell id="yecwBfwort3IGkdsRdy6-23" style="edgeStyle=orthogonalEdgeStyle;rounded=0;orthogonalLoop=1;jettySize=auto;html=1;entryX=0.5;entryY=0;entryDx=0;entryDy=0;" edge="1" parent="1" source="yecwBfwort3IGkdsRdy6-19" target="yecwBfwort3IGkdsRdy6-22">
          <mxGeometry relative="1" as="geometry" />
        </mxCell>
        <mxCell id="yecwBfwort3IGkdsRdy6-19" value="int i" style="rounded=0;whiteSpace=wrap;html=1;" vertex="1" parent="1">
          <mxGeometry x="485" y="140" width="120" height="40" as="geometry" />
        </mxCell>
        <mxCell id="yecwBfwort3IGkdsRdy6-25" style="edgeStyle=orthogonalEdgeStyle;rounded=0;orthogonalLoop=1;jettySize=auto;html=1;entryX=0.5;entryY=0;entryDx=0;entryDy=0;" edge="1" parent="1" source="yecwBfwort3IGkdsRdy6-22">
          <mxGeometry relative="1" as="geometry">
            <mxPoint x="544.9999999999998" y="330" as="targetPoint" />
          </mxGeometry>
        </mxCell>
        <mxCell id="yecwBfwort3IGkdsRdy6-49" style="edgeStyle=orthogonalEdgeStyle;rounded=0;orthogonalLoop=1;jettySize=auto;html=1;entryX=0.5;entryY=0;entryDx=0;entryDy=0;" edge="1" parent="1" source="yecwBfwort3IGkdsRdy6-22" target="yecwBfwort3IGkdsRdy6-38">
          <mxGeometry relative="1" as="geometry">
            <Array as="points">
              <mxPoint x="690" y="245" />
              <mxPoint x="690" y="500" />
              <mxPoint x="550" y="500" />
            </Array>
          </mxGeometry>
        </mxCell>
        <mxCell id="yecwBfwort3IGkdsRdy6-22" value="Desde i = 0&lt;br&gt;Mientras i &amp;lt; n&lt;br&gt;Incremento i++" style="shape=hexagon;perimeter=hexagonPerimeter2;whiteSpace=wrap;html=1;fixedSize=1;" vertex="1" parent="1">
          <mxGeometry x="477.5" y="205" width="135" height="80" as="geometry" />
        </mxCell>
        <mxCell id="yecwBfwort3IGkdsRdy6-29" style="edgeStyle=orthogonalEdgeStyle;rounded=0;orthogonalLoop=1;jettySize=auto;html=1;entryX=0.5;entryY=0;entryDx=0;entryDy=0;" edge="1" parent="1" source="yecwBfwort3IGkdsRdy6-30" target="yecwBfwort3IGkdsRdy6-32">
          <mxGeometry relative="1" as="geometry" />
        </mxCell>
        <mxCell id="yecwBfwort3IGkdsRdy6-30" value="&quot;Arreglo 2:&quot;" style="shape=document;whiteSpace=wrap;html=1;boundedLbl=1;" vertex="1" parent="1">
          <mxGeometry x="157.5" y="391" width="120" height="50" as="geometry" />
        </mxCell>
        <mxCell id="yecwBfwort3IGkdsRdy6-53" style="edgeStyle=orthogonalEdgeStyle;rounded=0;orthogonalLoop=1;jettySize=auto;html=1;entryX=0.5;entryY=0;entryDx=0;entryDy=0;" edge="1" parent="1" source="yecwBfwort3IGkdsRdy6-32" target="yecwBfwort3IGkdsRdy6-52">
          <mxGeometry relative="1" as="geometry" />
        </mxCell>
        <mxCell id="yecwBfwort3IGkdsRdy6-32" value="imprArr(vect2, 5)" style="rounded=0;whiteSpace=wrap;html=1;" vertex="1" parent="1">
          <mxGeometry x="157.5" y="471" width="120" height="50" as="geometry" />
        </mxCell>
        <mxCell id="yecwBfwort3IGkdsRdy6-38" value="return 1" style="ellipse;whiteSpace=wrap;html=1;" vertex="1" parent="1">
          <mxGeometry x="507.5" y="532" width="85" height="60" as="geometry" />
        </mxCell>
        <mxCell id="yecwBfwort3IGkdsRdy6-47" style="edgeStyle=orthogonalEdgeStyle;rounded=0;orthogonalLoop=1;jettySize=auto;html=1;entryX=0.5;entryY=0;entryDx=0;entryDy=0;" edge="1" parent="1" source="yecwBfwort3IGkdsRdy6-45" target="yecwBfwort3IGkdsRdy6-46">
          <mxGeometry relative="1" as="geometry">
            <Array as="points">
              <mxPoint x="620" y="375" />
            </Array>
          </mxGeometry>
        </mxCell>
        <mxCell id="yecwBfwort3IGkdsRdy6-48" style="edgeStyle=orthogonalEdgeStyle;rounded=0;orthogonalLoop=1;jettySize=auto;html=1;entryX=0;entryY=0.5;entryDx=0;entryDy=0;" edge="1" parent="1" source="yecwBfwort3IGkdsRdy6-45" target="yecwBfwort3IGkdsRdy6-22">
          <mxGeometry relative="1" as="geometry">
            <Array as="points">
              <mxPoint x="440" y="375" />
              <mxPoint x="440" y="245" />
            </Array>
          </mxGeometry>
        </mxCell>
        <mxCell id="yecwBfwort3IGkdsRdy6-45" value="*(arr1 + i)&lt;br&gt;!=&lt;br&gt;*(arr2 + i)" style="rhombus;whiteSpace=wrap;html=1;" vertex="1" parent="1">
          <mxGeometry x="487.5" y="330" width="115" height="90" as="geometry" />
        </mxCell>
        <mxCell id="yecwBfwort3IGkdsRdy6-46" value="return 0" style="ellipse;whiteSpace=wrap;html=1;" vertex="1" parent="1">
          <mxGeometry x="580" y="416" width="80" height="50" as="geometry" />
        </mxCell>
        <mxCell id="yecwBfwort3IGkdsRdy6-50" value="V" style="text;html=1;strokeColor=none;fillColor=none;align=center;verticalAlign=middle;whiteSpace=wrap;rounded=0;" vertex="1" parent="1">
          <mxGeometry x="577" y="349" width="60" height="30" as="geometry" />
        </mxCell>
        <mxCell id="yecwBfwort3IGkdsRdy6-51" value="F" style="text;html=1;strokeColor=none;fillColor=none;align=center;verticalAlign=middle;whiteSpace=wrap;rounded=0;" vertex="1" parent="1">
          <mxGeometry x="453.5" y="349" width="60" height="30" as="geometry" />
        </mxCell>
        <mxCell id="yecwBfwort3IGkdsRdy6-56" style="edgeStyle=orthogonalEdgeStyle;rounded=0;orthogonalLoop=1;jettySize=auto;html=1;entryX=0.5;entryY=0;entryDx=0;entryDy=0;" edge="1" parent="1" source="yecwBfwort3IGkdsRdy6-52" target="yecwBfwort3IGkdsRdy6-55">
          <mxGeometry relative="1" as="geometry">
            <Array as="points">
              <mxPoint x="140" y="590" />
              <mxPoint x="140" y="670" />
            </Array>
          </mxGeometry>
        </mxCell>
        <mxCell id="yecwBfwort3IGkdsRdy6-57" style="edgeStyle=orthogonalEdgeStyle;rounded=0;orthogonalLoop=1;jettySize=auto;html=1;entryX=0.5;entryY=0;entryDx=0;entryDy=0;" edge="1" parent="1" source="yecwBfwort3IGkdsRdy6-52" target="yecwBfwort3IGkdsRdy6-54">
          <mxGeometry relative="1" as="geometry">
            <Array as="points">
              <mxPoint x="290" y="590" />
              <mxPoint x="290" y="670" />
            </Array>
          </mxGeometry>
        </mxCell>
        <mxCell id="yecwBfwort3IGkdsRdy6-52" value="comparArr(vect1, vect2, 5) == 1" style="rhombus;whiteSpace=wrap;html=1;" vertex="1" parent="1">
          <mxGeometry x="158.75" y="540" width="117.5" height="100" as="geometry" />
        </mxCell>
        <mxCell id="yecwBfwort3IGkdsRdy6-70" style="edgeStyle=orthogonalEdgeStyle;rounded=0;orthogonalLoop=1;jettySize=auto;html=1;entryX=0.5;entryY=0;entryDx=0;entryDy=0;" edge="1" parent="1" source="yecwBfwort3IGkdsRdy6-54" target="yecwBfwort3IGkdsRdy6-61">
          <mxGeometry relative="1" as="geometry">
            <Array as="points">
              <mxPoint x="290" y="700" />
              <mxPoint x="217" y="700" />
            </Array>
          </mxGeometry>
        </mxCell>
        <mxCell id="yecwBfwort3IGkdsRdy6-54" value="&quot;Son iguales&quot;" style="shape=document;whiteSpace=wrap;html=1;boundedLbl=1;" vertex="1" parent="1">
          <mxGeometry x="242" y="640" width="96" height="40" as="geometry" />
        </mxCell>
        <mxCell id="yecwBfwort3IGkdsRdy6-69" style="edgeStyle=orthogonalEdgeStyle;rounded=0;orthogonalLoop=1;jettySize=auto;html=1;entryX=0.5;entryY=0;entryDx=0;entryDy=0;" edge="1" parent="1" source="yecwBfwort3IGkdsRdy6-55" target="yecwBfwort3IGkdsRdy6-61">
          <mxGeometry relative="1" as="geometry">
            <Array as="points">
              <mxPoint x="139" y="700" />
              <mxPoint x="217" y="700" />
            </Array>
          </mxGeometry>
        </mxCell>
        <mxCell id="yecwBfwort3IGkdsRdy6-55" value="&quot;Son distintos&quot;" style="shape=document;whiteSpace=wrap;html=1;boundedLbl=1;" vertex="1" parent="1">
          <mxGeometry x="92" y="640" width="95" height="40" as="geometry" />
        </mxCell>
        <mxCell id="yecwBfwort3IGkdsRdy6-58" value="V" style="text;html=1;strokeColor=none;fillColor=none;align=center;verticalAlign=middle;whiteSpace=wrap;rounded=0;" vertex="1" parent="1">
          <mxGeometry x="250" y="562" width="60" height="30" as="geometry" />
        </mxCell>
        <mxCell id="yecwBfwort3IGkdsRdy6-59" value="F" style="text;html=1;strokeColor=none;fillColor=none;align=center;verticalAlign=middle;whiteSpace=wrap;rounded=0;" vertex="1" parent="1">
          <mxGeometry x="127" y="562" width="60" height="30" as="geometry" />
        </mxCell>
        <mxCell id="yecwBfwort3IGkdsRdy6-60" style="edgeStyle=orthogonalEdgeStyle;rounded=0;orthogonalLoop=1;jettySize=auto;html=1;entryX=0.5;entryY=0;entryDx=0;entryDy=0;" edge="1" parent="1" source="yecwBfwort3IGkdsRdy6-61" target="yecwBfwort3IGkdsRdy6-63">
          <mxGeometry relative="1" as="geometry" />
        </mxCell>
        <mxCell id="yecwBfwort3IGkdsRdy6-61" value="&quot;Arreglo 1:&quot;" style="shape=document;whiteSpace=wrap;html=1;boundedLbl=1;" vertex="1" parent="1">
          <mxGeometry x="157.5" y="722" width="120" height="50" as="geometry" />
        </mxCell>
        <mxCell id="yecwBfwort3IGkdsRdy6-62" style="edgeStyle=orthogonalEdgeStyle;rounded=0;orthogonalLoop=1;jettySize=auto;html=1;entryX=0.5;entryY=0;entryDx=0;entryDy=0;" edge="1" parent="1" source="yecwBfwort3IGkdsRdy6-63">
          <mxGeometry relative="1" as="geometry">
            <mxPoint x="217.5" y="882" as="targetPoint" />
          </mxGeometry>
        </mxCell>
        <mxCell id="yecwBfwort3IGkdsRdy6-63" value="imprArr(vect1, 5)" style="rounded=0;whiteSpace=wrap;html=1;" vertex="1" parent="1">
          <mxGeometry x="157.5" y="802" width="120" height="50" as="geometry" />
        </mxCell>
        <mxCell id="yecwBfwort3IGkdsRdy6-65" style="edgeStyle=orthogonalEdgeStyle;rounded=0;orthogonalLoop=1;jettySize=auto;html=1;entryX=0.5;entryY=0;entryDx=0;entryDy=0;" edge="1" parent="1" source="yecwBfwort3IGkdsRdy6-66" target="yecwBfwort3IGkdsRdy6-68">
          <mxGeometry relative="1" as="geometry" />
        </mxCell>
        <mxCell id="yecwBfwort3IGkdsRdy6-66" value="&quot;Arreglo 3:&quot;" style="shape=document;whiteSpace=wrap;html=1;boundedLbl=1;" vertex="1" parent="1">
          <mxGeometry x="157.5" y="882" width="120" height="50" as="geometry" />
        </mxCell>
        <mxCell id="yecwBfwort3IGkdsRdy6-68" value="imprArr(vect3, 5)" style="rounded=0;whiteSpace=wrap;html=1;" vertex="1" parent="1">
          <mxGeometry x="157.5" y="957" width="120" height="50" as="geometry" />
        </mxCell>
        <mxCell id="yecwBfwort3IGkdsRdy6-71" style="edgeStyle=orthogonalEdgeStyle;rounded=0;orthogonalLoop=1;jettySize=auto;html=1;entryX=0.5;entryY=0;entryDx=0;entryDy=0;" edge="1" parent="1" target="yecwBfwort3IGkdsRdy6-74">
          <mxGeometry relative="1" as="geometry">
            <mxPoint x="217" y="1007" as="sourcePoint" />
          </mxGeometry>
        </mxCell>
        <mxCell id="yecwBfwort3IGkdsRdy6-72" style="edgeStyle=orthogonalEdgeStyle;rounded=0;orthogonalLoop=1;jettySize=auto;html=1;entryX=0.5;entryY=0;entryDx=0;entryDy=0;" edge="1" parent="1" source="yecwBfwort3IGkdsRdy6-74" target="yecwBfwort3IGkdsRdy6-78">
          <mxGeometry relative="1" as="geometry">
            <Array as="points">
              <mxPoint x="140" y="1076" />
              <mxPoint x="140" y="1156" />
            </Array>
          </mxGeometry>
        </mxCell>
        <mxCell id="yecwBfwort3IGkdsRdy6-73" style="edgeStyle=orthogonalEdgeStyle;rounded=0;orthogonalLoop=1;jettySize=auto;html=1;entryX=0.5;entryY=0;entryDx=0;entryDy=0;" edge="1" parent="1" source="yecwBfwort3IGkdsRdy6-74" target="yecwBfwort3IGkdsRdy6-76">
          <mxGeometry relative="1" as="geometry">
            <Array as="points">
              <mxPoint x="290" y="1076" />
              <mxPoint x="290" y="1156" />
            </Array>
          </mxGeometry>
        </mxCell>
        <mxCell id="yecwBfwort3IGkdsRdy6-74" value="comparArr(vect1, vect3, 5) == 1" style="rhombus;whiteSpace=wrap;html=1;" vertex="1" parent="1">
          <mxGeometry x="158.75" y="1026" width="117.5" height="100" as="geometry" />
        </mxCell>
        <mxCell id="yecwBfwort3IGkdsRdy6-75" style="edgeStyle=orthogonalEdgeStyle;rounded=0;orthogonalLoop=1;jettySize=auto;html=1;entryX=0.5;entryY=0;entryDx=0;entryDy=0;" edge="1" parent="1" source="yecwBfwort3IGkdsRdy6-76">
          <mxGeometry relative="1" as="geometry">
            <mxPoint x="218" y="1208" as="targetPoint" />
            <Array as="points">
              <mxPoint x="290" y="1186" />
              <mxPoint x="217" y="1186" />
            </Array>
          </mxGeometry>
        </mxCell>
        <mxCell id="yecwBfwort3IGkdsRdy6-76" value="&quot;Son iguales&quot;" style="shape=document;whiteSpace=wrap;html=1;boundedLbl=1;" vertex="1" parent="1">
          <mxGeometry x="242" y="1126" width="96" height="40" as="geometry" />
        </mxCell>
        <mxCell id="yecwBfwort3IGkdsRdy6-77" style="edgeStyle=orthogonalEdgeStyle;rounded=0;orthogonalLoop=1;jettySize=auto;html=1;entryX=0.5;entryY=0;entryDx=0;entryDy=0;" edge="1" parent="1" source="yecwBfwort3IGkdsRdy6-78">
          <mxGeometry relative="1" as="geometry">
            <mxPoint x="218" y="1208" as="targetPoint" />
            <Array as="points">
              <mxPoint x="139" y="1186" />
              <mxPoint x="217" y="1186" />
            </Array>
          </mxGeometry>
        </mxCell>
        <mxCell id="yecwBfwort3IGkdsRdy6-78" value="&quot;Son distintos&quot;" style="shape=document;whiteSpace=wrap;html=1;boundedLbl=1;" vertex="1" parent="1">
          <mxGeometry x="92" y="1126" width="95" height="40" as="geometry" />
        </mxCell>
        <mxCell id="yecwBfwort3IGkdsRdy6-79" value="V" style="text;html=1;strokeColor=none;fillColor=none;align=center;verticalAlign=middle;whiteSpace=wrap;rounded=0;" vertex="1" parent="1">
          <mxGeometry x="250" y="1048" width="60" height="30" as="geometry" />
        </mxCell>
        <mxCell id="yecwBfwort3IGkdsRdy6-80" value="F" style="text;html=1;strokeColor=none;fillColor=none;align=center;verticalAlign=middle;whiteSpace=wrap;rounded=0;" vertex="1" parent="1">
          <mxGeometry x="127" y="1048" width="60" height="30" as="geometry" />
        </mxCell>
      </root>
    </mxGraphModel>
  </diagram>
</mxfile>
